<?xml version="1.0" encoding="utf-8"?>
<!-- Generator: Adobe Illustrator 25.0.0, SVG Export Plug-In . SVG Version: 6.00 Build 0)  -->
<svg version="1.1" id="Layer_1" xmlns="http://www.w3.org/2000/svg" xmlns:xlink="http://www.w3.org/1999/xlink" x="0px" y="0px"
	 viewBox="0 0 1024 1024" style="enable-background:new 0 0 1024 1024;" xml:space="preserve">
<style type="text/css">
	.st0{fill:#FFFFFF;}
</style>
<g>
	<g>
		<path class="st0" d="M511.9,1013.8c-3.9,0-7.7-1.6-10.5-4.4L216.2,724.2c-163.1-163.1-163.1-428.4,0-591.5
			c79-79,184-122.5,295.7-122.5c111.7,0,216.7,43.5,295.7,122.5c79,79,122.5,184.1,122.5,295.8c0,111.7-43.5,216.7-122.5,295.7
			l-285.2,285.2C519.6,1012.2,515.9,1013.8,511.9,1013.8z M511.9,39.9c-103.8,0-201.4,40.4-274.8,113.8
			c-151.5,151.5-151.5,398,0,549.5L511.9,978l274.7-274.8c73.4-73.4,113.8-170.9,113.8-274.7S860,227.1,786.6,153.7
			C713.2,80.3,615.7,39.9,511.9,39.9z"/>
	</g>
	<g>
		<path class="st0" d="M511.9,604.6c-97.2,0-176.2-79-176.2-176.2c0-97.1,79-176.2,176.2-176.2c97.1,0,176.2,79,176.2,176.2
			C688.1,525.6,609.1,604.6,511.9,604.6z M511.9,281.9c-80.8,0-146.5,65.7-146.5,146.5c0,80.8,65.7,146.5,146.5,146.5
			c80.8,0,146.5-65.7,146.5-146.5C658.4,347.6,592.7,281.9,511.9,281.9z"/>
	</g>
	<g>
		<path class="st0" d="M511.9,725.6c-163.9,0-297.2-133.3-297.2-297.2c0-163.9,133.3-297.2,297.2-297.2
			c163.9,0,297.2,133.3,297.2,297.2C809.1,592.3,675.8,725.6,511.9,725.6z M511.9,160.9c-147.5,0-267.5,120-267.5,267.5
			c0,147.5,120,267.6,267.5,267.6c147.5,0,267.5-120,267.5-267.6C779.4,280.9,659.4,160.9,511.9,160.9z"/>
	</g>
</g>
</svg>
